# xmcd CD database file
# Copyright (C) 1993-1998 Ti Kan
# 
# Track frame offsets:
#     150
#     9973
#     23040
#     34255
#     47763
#     59605
#     71475
#     82243
#     93223
#     105573
#     119725
#     130650
#     140868
#     156575
#     170433
#     184440
#     199658
#     213823
#     228730
#     240578
#     252560
#     264760
# 
# Disc length: 3698 seconds
# 
# Revision: 1
# Processed by: cddbd v1.4b41PL1 Copyright (c) Steve Scherf et al.
# Submitted via: DiscPlay 4.0.4
# 
DISCID=410e7016
DTITLE=Boxcar Willie - Best Loved Favorites
DYEAR=1900
DGENRE=
TTITLE0=Blue Moon Of Kentucky
TTITLE1=Crazy Arms
TTITLE2=In The Jailhouse Now
TTITLE3=I Won't Get Over You
TTITLE4=Six Days On The Road
TTITLE5=Wings Of A Dove
TTITLE6=Pistol Packin' Mama
TTITLE7=Half As Much
TTITLE8=Whistle Ain't Made Of Gold
TTITLE9=Almost Persuaded
TTITLE10=Louisiana Saturday Night
TTITLE11=This Ol' House
TTITLE12=Goodnight, Irene
TTITLE13=Good Hearted Woman
TTITLE14=Cold, Cold Heart
TTITLE15=Mom And Dad's Waltz
TTITLE16=L. A. Lady
TTITLE17=I'm Thinking Tonight Of My Blue Eyes
TTITLE18=Lovesick Blues
TTITLE19=Fraulein
TTITLE20=Don't Pretend
TTITLE21=I'll Fly Away
EXTD=
EXTT0=
EXTT1=
EXTT2=
EXTT3=
EXTT4=
EXTT5=
EXTT6=
EXTT7=
EXTT8=
EXTT9=
EXTT10=
EXTT11=
EXTT12=
EXTT13=
EXTT14=
EXTT15=
EXTT16=
EXTT17=
EXTT18=
EXTT19=
EXTT20=
EXTT21=
PLAYORDER=
